# xmcd CD database file
#
# Track frame offsets:
#	150
#	12762
#	34747
#	44027
#	61635
#	70465
#	88872
#	97122
#	114900
#	131892
#	149495
#	160215
#
# Disc length: 2320 seconds
#
# Revision: 2
# Processed by: cddbd v1.4PL0 Copyright (c) Steve Scherf et al.
# Submitted via: CDex 1.50beta10
#
DISCID=ab090e0c
DTITLE=Little Freddie King - Swamp Boogie
DYEAR=1996
DGENRE=Blues
TTITLE0=Cleo's Back
TTITLE1=Mean Little Woman
TTITLE2=Swamp Boogie
TTITLE3=I Use To Be Down
TTITLE4=San Ho Zay
TTITLE5=Bus Station Blues
TTITLE6=Kinky Cotton Fields
TTITLE7=Baby Got It All
TTITLE8=What'd I Say
TTITLE9=I'm Gonna Haul Right Off And Cry
TTITLE10=The Great Chinese
TTITLE11=Cat Squall Blues
EXTD=YEAR: 1996
EXTT0=
EXTT1=
EXTT2=
EXTT3=
EXTT4=
EXTT5=
EXTT6=
EXTT7=
EXTT8=
EXTT9=
EXTT10=
EXTT11=
PLAYORDER=
